{
    "accessors": [
        {
            "bufferView": 0,
            "componentType": 5126,
            "count": 1284,
            "max": [
                0.3243336081504822,
                0.6833795309066772,
                0.3263033628463745
            ],
            "min": [
                -0.3243336081504822,
                -1.4901161193847656e-08,
                -0.32630330324172974
            ],
            "type": "VEC3"
        },
        {
            "bufferView": 1,
            "componentType": 5126,
            "count": 1284,
            "type": "VEC2"
        },
        {
            "bufferView": 2,
            "componentType": 5126,
            "count": 1284,
            "type": "VEC3"
        },
        {
            "bufferView": 3,
            "componentType": 5123,
            "count": 1881,
            "type": "SCALAR"
        },
        {
            "bufferView": 4,
            "componentType": 5123,
            "count": 3,
            "type": "SCALAR"
        },
        {
            "bufferView": 5,
            "componentType": 5123,
            "count": 1254,
            "type": "SCALAR"
        },
        {
            "bufferView": 6,
            "componentType": 5123,
            "count": 3,
            "type": "SCALAR"
        },
        {
            "bufferView": 7,
            "componentType": 5123,
            "count": 1881,
            "type": "SCALAR"
        }
    ],
    "asset": {
        "generator": "Adobe Creative Cloud",
        "version": "2.0"
    },
    "bufferViews": [
        {
            "buffer": 0,
            "byteLength": 15408
        },
        {
            "buffer": 0,
            "byteLength": 10272,
            "byteOffset": 15408
        },
        {
            "buffer": 0,
            "byteLength": 15408,
            "byteOffset": 25680
        },
        {
            "buffer": 0,
            "byteLength": 3762,
            "byteOffset": 41088
        },
        {
            "buffer": 0,
            "byteLength": 6,
            "byteOffset": 44850
        },
        {
            "buffer": 0,
            "byteLength": 2508,
            "byteOffset": 44856
        },
        {
            "buffer": 0,
            "byteLength": 6,
            "byteOffset": 47364
        },
        {
            "buffer": 0,
            "byteLength": 3762,
            "byteOffset": 47370
        },
        {
            "buffer": 0,
            "byteLength": 269507,
            "byteOffset": 51132
        },
        {
            "buffer": 0,
            "byteLength": 79300,
            "byteOffset": 320639
        }
    ],
    "buffers": [
        {
            "byteLength": 399939,
            "uri": "bussola.bin"
        }
    ],
    "extensionsRequired": [
        "KHR_texture_transform",
        "KHR_texture_transform",
        "KHR_texture_transform",
        "KHR_texture_transform"
    ],
    "extensionsUsed": [
        "KHR_texture_transform",
        "KHR_texture_transform",
        "KHR_texture_transform",
        "KHR_texture_transform"
    ],
    "images": [
        {
            "bufferView": 8,
            "mimeType": "image/jpeg",
            "name": "Camada 1.JPG"
        },
        {
            "bufferView": 9,
            "mimeType": "image/jpeg",
            "name": "Camada 1 Material de extrusão - Textura padrão.JPG"
        }
    ],
    "materials": [
        {
            "alphaMode": "OPAQUE",
            "doubleSided": true,
            "emissiveFactor": [
                0.0,
                0.0,
                0.0
            ],
            "name": "Camada 1 Material de inflação da frente",
            "pbrMetallicRoughness": {
                "baseColorFactor": [
                    0.7843137383460999,
                    0.6540321707725525,
                    0.4121614396572113,
                    1.0
                ],
                "baseColorTexture": {
                    "extensions": {
                        "KHR_texture_transform": {
                            "offset": [
                                5.19480499860947e-06,
                                0.001168691786006093
                            ],
                            "rotation": 0.0,
                            "scale": [
                                1.0017129182815552,
                                0.9992325901985168
                            ]
                        }
                    },
                    "index": 0
                },
                "metallicFactor": 0.07999999821186066,
                "roughnessFactor": 0.3333333432674408
            }
        },
        {
            "alphaMode": "OPAQUE",
            "doubleSided": true,
            "emissiveFactor": [
                0.0,
                0.0,
                0.0
            ],
            "name": "Camada 1 Material de chanfro da frente",
            "pbrMetallicRoughness": {
                "baseColorFactor": [
                    0.5,
                    0.5,
                    0.5,
                    1.0
                ],
                "baseColorTexture": {
                    "extensions": {
                        "KHR_texture_transform": {
                            "offset": [
                                5.19480499860947e-06,
                                0.001168691786006093
                            ],
                            "rotation": 0.0,
                            "scale": [
                                1.0017129182815552,
                                0.9992325901985168
                            ]
                        }
                    },
                    "index": 0
                },
                "metallicFactor": 0.07999999821186066,
                "roughnessFactor": 0.3333333432674408
            }
        },
        {
            "alphaMode": "OPAQUE",
            "doubleSided": true,
            "emissiveFactor": [
                0.0,
                0.0,
                0.0
            ],
            "name": "Camada 1 Material de extrusão",
            "pbrMetallicRoughness": {
                "baseColorFactor": [
                    0.4705810546875,
                    0.37646484375,
                    0.211761474609375,
                    1.0
                ],
                "baseColorTexture": {
                    "index": 1
                },
                "metallicFactor": 0.07999999821186066,
                "roughnessFactor": 0.3333333432674408
            }
        },
        {
            "alphaMode": "OPAQUE",
            "doubleSided": true,
            "emissiveFactor": [
                0.0,
                0.0,
                0.0
            ],
            "name": "Camada 1 Material de chanfro do verso",
            "pbrMetallicRoughness": {
                "baseColorFactor": [
                    0.5,
                    0.5,
                    0.5,
                    1.0
                ],
                "baseColorTexture": {
                    "extensions": {
                        "KHR_texture_transform": {
                            "offset": [
                                5.19480499860947e-06,
                                0.001168691786006093
                            ],
                            "rotation": 0.0,
                            "scale": [
                                1.0017129182815552,
                                0.9992325901985168
                            ]
                        }
                    },
                    "index": 0
                },
                "metallicFactor": 0.07999999821186066,
                "roughnessFactor": 0.3333333432674408
            }
        },
        {
            "alphaMode": "OPAQUE",
            "doubleSided": true,
            "emissiveFactor": [
                0.0,
                0.0,
                0.0
            ],
            "name": "Camada 1 Material de inflação do verso",
            "pbrMetallicRoughness": {
                "baseColorFactor": [
                    0.5,
                    0.5,
                    0.5,
                    1.0
                ],
                "baseColorTexture": {
                    "extensions": {
                        "KHR_texture_transform": {
                            "offset": [
                                5.19480499860947e-06,
                                0.001168691786006093
                            ],
                            "rotation": 0.0,
                            "scale": [
                                1.0017129182815552,
                                0.9992325901985168
                            ]
                        }
                    },
                    "index": 0
                },
                "metallicFactor": 0.07999999821186066,
                "roughnessFactor": 0.3333333432674408
            }
        }
    ],
    "meshes": [
        {
            "name": "Camada 1",
            "primitives": [
                {
                    "attributes": {
                        "NORMAL": 2,
                        "POSITION": 0,
                        "TEXCOORD_0": 1
                    },
                    "indices": 3,
                    "material": 0,
                    "mode": 4
                },
                {
                    "attributes": {
                        "NORMAL": 2,
                        "POSITION": 0,
                        "TEXCOORD_0": 1
                    },
                    "indices": 4,
                    "material": 1,
                    "mode": 4
                },
                {
                    "attributes": {
                        "NORMAL": 2,
                        "POSITION": 0,
                        "TEXCOORD_0": 1
                    },
                    "indices": 5,
                    "material": 2,
                    "mode": 4
                },
                {
                    "attributes": {
                        "NORMAL": 2,
                        "POSITION": 0,
                        "TEXCOORD_0": 1
                    },
                    "indices": 6,
                    "material": 3,
                    "mode": 4
                },
                {
                    "attributes": {
                        "NORMAL": 2,
                        "POSITION": 0,
                        "TEXCOORD_0": 1
                    },
                    "indices": 7,
                    "material": 4,
                    "mode": 4
                }
            ]
        }
    ],
    "nodes": [
        {
            "matrix": [
                0.0009232243173755705,
                -0.00034828518982976675,
                0.00016233748465310782,
                0.0,
                0.0003653067979030311,
                0.0006644711829721928,
                -0.0006519418675452471,
                0.0,
                0.00011919313692487776,
                0.0006611916469410062,
                0.000740686955396086,
                0.0,
                -0.4591407775878906,
                0.23294366896152496,
                0.25094443559646606,
                0.9999999403953552
            ],
            "mesh": 0,
            "name": "Camada 1"
        }
    ],
    "scene": 0,
    "scenes": [
        {
            "name": "Scene",
            "nodes": [
                0
            ]
        }
    ],
    "textures": [
        {
            "source": 0
        },
        {
            "source": 1
        }
    ]
}
