{
    "accessors": [
        {
            "bufferView": 0,
            "componentType": 5126,
            "count": 4850,
            "max": [
                0.10062851011753082,
                0.10818107426166534,
                0.13964511454105377
            ],
            "min": [
                -0.10062850266695023,
                -7.450580596923828e-09,
                -0.1396450698375702
            ],
            "type": "VEC3"
        },
        {
            "bufferView": 1,
            "componentType": 5126,
            "count": 4850,
            "type": "VEC2"
        },
        {
            "bufferView": 2,
            "componentType": 5126,
            "count": 4850,
            "type": "VEC3"
        },
        {
            "bufferView": 3,
            "componentType": 5123,
            "count": 7182,
            "type": "SCALAR"
        },
        {
            "bufferView": 4,
            "componentType": 5123,
            "count": 3,
            "type": "SCALAR"
        },
        {
            "bufferView": 5,
            "componentType": 5123,
            "count": 4566,
            "type": "SCALAR"
        },
        {
            "bufferView": 6,
            "componentType": 5123,
            "count": 3,
            "type": "SCALAR"
        },
        {
            "bufferView": 7,
            "componentType": 5123,
            "count": 7182,
            "type": "SCALAR"
        }
    ],
    "asset": {
        "generator": "Adobe Creative Cloud",
        "version": "2.0"
    },
    "bufferViews": [
        {
            "buffer": 0,
            "byteLength": 58200
        },
        {
            "buffer": 0,
            "byteLength": 38800,
            "byteOffset": 58200
        },
        {
            "buffer": 0,
            "byteLength": 58200,
            "byteOffset": 97000
        },
        {
            "buffer": 0,
            "byteLength": 14364,
            "byteOffset": 155200
        },
        {
            "buffer": 0,
            "byteLength": 6,
            "byteOffset": 169564
        },
        {
            "buffer": 0,
            "byteLength": 9132,
            "byteOffset": 169570
        },
        {
            "buffer": 0,
            "byteLength": 6,
            "byteOffset": 178702
        },
        {
            "buffer": 0,
            "byteLength": 14364,
            "byteOffset": 178708
        },
        {
            "buffer": 0,
            "byteLength": 3754109,
            "byteOffset": 193072
        },
        {
            "buffer": 0,
            "byteLength": 79300,
            "byteOffset": 3947181
        }
    ],
    "buffers": [
        {
            "byteLength": 4026481,
            "uri": "Bussola.bin"
        }
    ],
    "extensionsRequired": [
        "KHR_texture_transform",
        "KHR_texture_transform",
        "KHR_texture_transform",
        "KHR_texture_transform"
    ],
    "extensionsUsed": [
        "KHR_texture_transform",
        "KHR_texture_transform",
        "KHR_texture_transform",
        "KHR_texture_transform"
    ],
    "images": [
        {
            "bufferView": 8,
            "mimeType": "image/jpeg",
            "name": "8.JPG"
        },
        {
            "bufferView": 9,
            "mimeType": "image/jpeg",
            "name": "8 Material de extrusão - Textura padrão.JPG"
        }
    ],
    "materials": [
        {
            "alphaMode": "OPAQUE",
            "doubleSided": true,
            "emissiveFactor": [
                0.0,
                0.0,
                0.0
            ],
            "name": "8 Material de inflação da frente",
            "pbrMetallicRoughness": {
                "baseColorFactor": [
                    0.5,
                    0.5,
                    0.5,
                    1.0
                ],
                "baseColorTexture": {
                    "extensions": {
                        "KHR_texture_transform": {
                            "offset": [
                                0.03427090123295784,
                                -1.7992655557463877e-05
                            ],
                            "rotation": 0.0,
                            "scale": [
                                0.9659872055053711,
                                0.9997567534446716
                            ]
                        }
                    },
                    "index": 0
                },
                "metallicFactor": 0.07999999821186066,
                "roughnessFactor": 0.3333333432674408
            }
        },
        {
            "alphaMode": "OPAQUE",
            "doubleSided": true,
            "emissiveFactor": [
                0.0,
                0.0,
                0.0
            ],
            "name": "8 Material de chanfro da frente",
            "pbrMetallicRoughness": {
                "baseColorFactor": [
                    0.5,
                    0.5,
                    0.5,
                    1.0
                ],
                "baseColorTexture": {
                    "extensions": {
                        "KHR_texture_transform": {
                            "offset": [
                                0.03427090123295784,
                                -1.7992655557463877e-05
                            ],
                            "rotation": 0.0,
                            "scale": [
                                0.9659872055053711,
                                0.9997567534446716
                            ]
                        }
                    },
                    "index": 0
                },
                "metallicFactor": 0.07999999821186066,
                "roughnessFactor": 0.3333333432674408
            }
        },
        {
            "alphaMode": "OPAQUE",
            "doubleSided": true,
            "emissiveFactor": [
                0.0,
                0.0,
                0.0
            ],
            "name": "8 Material de extrusão",
            "pbrMetallicRoughness": {
                "baseColorFactor": [
                    0.45849609375,
                    0.40789794921875,
                    0.290069580078125,
                    1.0
                ],
                "baseColorTexture": {
                    "index": 1
                },
                "metallicFactor": 0.07999999821186066,
                "roughnessFactor": 0.3333333432674408
            }
        },
        {
            "alphaMode": "OPAQUE",
            "doubleSided": true,
            "emissiveFactor": [
                0.0,
                0.0,
                0.0
            ],
            "name": "8 Material de chanfro do verso",
            "pbrMetallicRoughness": {
                "baseColorFactor": [
                    0.44659423828125,
                    0.410125732421875,
                    0.3214111328125,
                    1.0
                ],
                "baseColorTexture": {
                    "extensions": {
                        "KHR_texture_transform": {
                            "offset": [
                                0.03427090123295784,
                                -1.7992655557463877e-05
                            ],
                            "rotation": 0.0,
                            "scale": [
                                0.9659872055053711,
                                0.9997567534446716
                            ]
                        }
                    },
                    "index": 0
                },
                "metallicFactor": 0.07999999821186066,
                "roughnessFactor": 0.3333333432674408
            }
        },
        {
            "alphaMode": "OPAQUE",
            "doubleSided": true,
            "emissiveFactor": [
                0.0,
                0.0,
                0.0
            ],
            "name": "8 Material de inflação do verso",
            "pbrMetallicRoughness": {
                "baseColorFactor": [
                    0.5,
                    0.5,
                    0.5,
                    1.0
                ],
                "baseColorTexture": {
                    "extensions": {
                        "KHR_texture_transform": {
                            "offset": [
                                0.03427090123295784,
                                -1.7992655557463877e-05
                            ],
                            "rotation": 0.0,
                            "scale": [
                                0.9659872055053711,
                                0.9997567534446716
                            ]
                        }
                    },
                    "index": 0
                },
                "metallicFactor": 0.07999999821186066,
                "roughnessFactor": 0.3333333432674408
            }
        }
    ],
    "meshes": [
        {
            "name": "8",
            "primitives": [
                {
                    "attributes": {
                        "NORMAL": 2,
                        "POSITION": 0,
                        "TEXCOORD_0": 1
                    },
                    "indices": 3,
                    "material": 0,
                    "mode": 4
                },
                {
                    "attributes": {
                        "NORMAL": 2,
                        "POSITION": 0,
                        "TEXCOORD_0": 1
                    },
                    "indices": 4,
                    "material": 1,
                    "mode": 4
                },
                {
                    "attributes": {
                        "NORMAL": 2,
                        "POSITION": 0,
                        "TEXCOORD_0": 1
                    },
                    "indices": 5,
                    "material": 2,
                    "mode": 4
                },
                {
                    "attributes": {
                        "NORMAL": 2,
                        "POSITION": 0,
                        "TEXCOORD_0": 1
                    },
                    "indices": 6,
                    "material": 3,
                    "mode": 4
                },
                {
                    "attributes": {
                        "NORMAL": 2,
                        "POSITION": 0,
                        "TEXCOORD_0": 1
                    },
                    "indices": 7,
                    "material": 4,
                    "mode": 4
                }
            ]
        }
    ],
    "nodes": [
        {
            "matrix": [
                7.129507139325142e-05,
                1.5698966535637737e-06,
                3.268802856837283e-06,
                0.0,
                2.897945933000301e-06,
                1.401585541316308e-05,
                -6.99377415003255e-05,
                0.0,
                -2.1797993667860283e-06,
                6.998003664193675e-05,
                1.3934008165961131e-05,
                0.0,
                -0.11480888724327087,
                0.05201737955212593,
                0.13478121161460876,
                0.9999999403953552
            ],
            "mesh": 0,
            "name": "8"
        }
    ],
    "scene": 0,
    "scenes": [
        {
            "name": "Scene",
            "nodes": [
                0
            ]
        }
    ],
    "textures": [
        {
            "source": 0
        },
        {
            "source": 1
        }
    ]
}
